<svg xmlns="http://www.w3.org/2000/svg" viewBox="0 -0.5 16 17" shape-rendering="crispEdges">
<metadata>Made with Pixels to Svg https://codepen.io/shshaw/pen/XbxvNj</metadata>
<path stroke="#ffffff" d="M4 0h1M6 0h2M10 0h3M14 0h2M4 1h1M6 1h2M11 1h4M3 2h2M12 2h2M3 3h2M2 4h2M10 4h2M9 5h5M1 6h2M4 6h1M6 6h1M8 6h1M12 6h1M1 7h1M3 7h1M5 7h1M9 7h1M11 7h2M0 8h8M11 8h1M0 9h4M5 9h5M6 10h4M6 11h3M5 12h3M5 13h1M4 14h1M3 16h1" />
<path stroke="#feffff" d="M5 0h1M8 0h2M13 0h1M5 1h1M8 1h3M11 3h2M2 5h2M14 5h1M9 6h3M13 6h1M2 7h1M7 7h1M8 8h1M10 8h1M4 9h1M10 9h1M6 13h1M5 14h1M4 15h1" />
</svg>