<?xml version="1.0" encoding="UTF-8" standalone="no"?>
<svg
   xmlns:dc="http://purl.org/dc/elements/1.1/"
   xmlns:cc="http://creativecommons.org/ns#"
   xmlns:rdf="http://www.w3.org/1999/02/22-rdf-syntax-ns#"
   xmlns:svg="http://www.w3.org/2000/svg"
   xmlns="http://www.w3.org/2000/svg"
   xmlns:sodipodi="http://sodipodi.sourceforge.net/DTD/sodipodi-0.dtd"
   xmlns:inkscape="http://www.inkscape.org/namespaces/inkscape"
   version="1.1"
   viewBox="0 0 233 282"
   id="svg58"
   sodipodi:docname="steam.svg"
   width="233"
   height="282"
   inkscape:version="1.0 (4035a4fb49, 2020-05-01)">
  <metadata
     id="metadata62">
    <rdf:RDF>
      <cc:Work
         rdf:about="">
        <dc:format>image/svg+xml</dc:format>
        <dc:type
           rdf:resource="http://purl.org/dc/dcmitype/StillImage" />
        <dc:title />
      </cc:Work>
    </rdf:RDF>
  </metadata>
  <sodipodi:namedview
     inkscape:document-rotation="0"
     pagecolor="#ffffff"
     bordercolor="#666666"
     borderopacity="1"
     objecttolerance="10"
     gridtolerance="10"
     guidetolerance="10"
     inkscape:pageopacity="0"
     inkscape:pageshadow="2"
     inkscape:window-width="1920"
     inkscape:window-height="1017"
     id="namedview60"
     showgrid="false"
     inkscape:zoom="3.6480687"
     inkscape:cx="150.10996"
     inkscape:cy="184.35327"
     inkscape:window-x="-8"
     inkscape:window-y="-8"
     inkscape:window-maximized="1"
     inkscape:current-layer="svg58" />
  <defs
     id="defs52">
    <linearGradient
       id="a"
       x2="116.68872"
       x1="116.68872"
       y2="232.87497"
       gradientTransform="scale(0.99946338,1.0005369)"
       y1="0"
       gradientUnits="userSpaceOnUse">
      <stop
         stop-color="#111D2E"
         offset="0"
         id="stop37" />
      <stop
         stop-color="#051839"
         offset=".21248"
         id="stop39" />
      <stop
         stop-color="#0A1B48"
         offset=".40695"
         id="stop41" />
      <stop
         stop-color="#132E62"
         offset=".58110"
         id="stop43" />
      <stop
         stop-color="#144B7E"
         offset=".73760"
         id="stop45" />
      <stop
         stop-color="#136497"
         offset=".87279"
         id="stop47" />
      <stop
         stop-color="#1387B8"
         offset="1"
         id="stop49" />
    </linearGradient>
  </defs>
  <path
     id="path54"
     style="fill:#ffffff"
     d="M 116.50195,0 C 54.760953,0 4.2419531,48.028766 0.25195312,108.75977 c 0.0174855,0.0294 0.0333453,0.0566 0.0507813,0.0859 8.86e-6,-1.6e-4 9e-7,-0.0156 0,-0.0156 L 62.900391,134.59961 c 1.703,-1.12 3.518078,-2.08891 5.455078,-2.87891 4.394,-1.81 9.028484,-2.62015 13.646484,-2.41015 L 110.50977,87.898438 c -0.01,-0.184 -0.01,-0.380172 -0.01,-0.576172 C 110.5,62.882266 130.35,43 154.75,43 179.16,43 199,62.882266 199,87.322266 c 0,24.438004 -19.84,44.337894 -44.25,44.337894 -0.33,0 -0.67,-0.01 -1,-0.0195 l -40.78906,29.14844 c 0.12,4.5 -0.71024,9.01055 -2.49024,13.31055 -6.84,16.45 -25.799184,24.28016 -42.242184,17.41016 -10.05,-4.19 -16.861985,-12.90008 -19.083985,-22.83008 L 5.0429688,150.48242 C 19.586881,198.24731 63.982362,233 116.50195,233 c 64.34,0 116.5,-52.16 116.5,-116.5 0,-64.341 -52.16,-116.5 -116.5,-116.5 z M 154.75,57.792969 c -16.25,0 -29.48047,13.254297 -29.48047,29.529297 0,16.288004 13.23047,29.537114 29.48047,29.537114 16.26,0 29.49023,-13.24911 29.49023,-29.537114 0,-16.275 -13.23023,-29.529297 -29.49023,-29.529297 z m 0.0508,7.292969 c 12.23,0 22.14844,9.938406 22.14844,22.191406 0,12.254 -9.91844,22.183596 -22.14844,22.183596 -12.22,0 -22.14062,-9.929596 -22.14062,-22.183596 0,-12.253 9.92062,-22.191406 22.14062,-22.191406 z M 80.917969,136.68945 c -3.114125,-0.025 -6.183641,0.54086 -9.056641,1.63086 l 14.892578,6.16992 c 9.358,3.9 13.786814,14.6593 9.882813,24.0293 -3.892,9.36 -14.635047,13.80039 -23.998047,9.90039 l -14.404297,-5.9707 c 2.551,5.33 6.973078,9.80023 12.830078,12.24023 12.696,5.29 27.301703,-0.73922 32.595707,-13.44922 2.56,-6.14 2.56906,-12.93961 0.0391,-19.09961 -2.53,-6.16 -7.304032,-10.98101 -13.457032,-13.54101 -3.0515,-1.27 -6.210094,-1.88516 -9.324219,-1.91016 z" />
  <text
     xml:space="preserve"
     style="font-style:normal;font-weight:normal;font-size:40px;line-height:1.25;font-family:sans-serif;fill:#000000;fill-opacity:1;stroke:none"
     x="4.9341178"
     y="272.74707"
     id="text78"><tspan
       sodipodi:role="line"
       id="tspan76"
       x="4.9341178"
       y="272.74707" /></text>
  <text
     transform="scale(0.93922483,1.0647078)"
     id="text27"
     y="264.15198"
     x="9.5086374"
     style="font-style:normal;font-variant:normal;font-weight:bold;font-stretch:normal;font-size:37.569px;line-height:1.25;font-family:sans-serif;-inkscape-font-specification:'sans-serif, Bold';font-variant-ligatures:normal;font-variant-caps:normal;font-variant-numeric:normal;font-variant-east-asian:normal;fill:#ffffff;fill-opacity:1;stroke:none;stroke-width:0.939229;"
     xml:space="preserve"><tspan
       style="font-style:normal;font-variant:normal;font-weight:bold;font-stretch:normal;font-size:37.569px;font-family:sans-serif;-inkscape-font-specification:'sans-serif, Bold';font-variant-ligatures:normal;font-variant-caps:normal;font-variant-numeric:normal;font-variant-east-asian:normal;stroke-width:0.939229;fill:#ffffff;"
       y="264.15198"
       x="9.5086374"
       id="tspan25"
       sodipodi:role="line">WORKSHOP</tspan></text>
</svg>
