<?xml version="1.0" encoding="UTF-8" standalone="no"?>
<svg
   xmlns:dc="http://purl.org/dc/elements/1.1/"
   xmlns:cc="http://creativecommons.org/ns#"
   xmlns:rdf="http://www.w3.org/1999/02/22-rdf-syntax-ns#"
   xmlns:svg="http://www.w3.org/2000/svg"
   xmlns="http://www.w3.org/2000/svg"
   xmlns:sodipodi="http://sodipodi.sourceforge.net/DTD/sodipodi-0.dtd"
   xmlns:inkscape="http://www.inkscape.org/namespaces/inkscape"
   inkscape:version="1.0 (4035a4fb49, 2020-05-01)"
   sodipodi:docname="windows.svg"
   id="svg42"
   width="88"
   height="88"
   version="1.1">
  <metadata
     id="metadata48">
    <rdf:RDF>
      <cc:Work
         rdf:about="">
        <dc:format>image/svg+xml</dc:format>
        <dc:type
           rdf:resource="http://purl.org/dc/dcmitype/StillImage" />
      </cc:Work>
    </rdf:RDF>
  </metadata>
  <defs
     id="defs46" />
  <sodipodi:namedview
     inkscape:current-layer="svg42"
     inkscape:window-maximized="1"
     inkscape:window-y="-8"
     inkscape:window-x="-8"
     inkscape:cy="85.74176"
     inkscape:cx="57.313908"
     inkscape:zoom="6.8300087"
     showgrid="false"
     id="namedview44"
     inkscape:window-height="1017"
     inkscape:window-width="1920"
     inkscape:pageshadow="2"
     inkscape:pageopacity="0"
     guidetolerance="10"
     gridtolerance="10"
     objecttolerance="10"
     borderopacity="1"
     bordercolor="#666666"
     pagecolor="#ffffff" />
  <path
     id="path34"
     d="m0,12.402,35.687-4.8602,0.0156,34.423-35.67,0.20313z"
     style="fill:#ffffff" />
  <path
     id="path36"
     d="m39.996,6.9059,47.318-6.906,0,41.527-47.318,0.37565z"
     style="fill:#ffffff" />
  <path
     id="path38"
     d="m35.67,45.931,0.0277,34.453-35.67-4.9041-0.002-29.78z"
     style="fill:#ffffff" />
  <path
     id="path40"
     d="m87.326,46.255-0.0111,41.34-47.318-6.6784-0.0663-34.739z"
     style="fill:#ffffff" />
  <path
     id="path50"
     d="M 0.08345019,27.318655 C 0.06602317,19.154807 0.05176471,12.468645 0.05176471,12.460519 c 0,-0.02864 35.13758829,-4.7993425 35.34854629,-4.7993425 h 0.213807 V 24.782295 41.903414 l -11.207059,0.06505 c -6.163883,0.03578 -14.151154,0.09396 -17.7494912,0.129301 l -6.54243213,0.06425 z"
     style="fill:#ffffff;stroke-width:0.103529" />
  <path
     id="path52"
     d="M 20.291765,78.223912 C 11.949882,77.071513 3.9949412,75.973823 2.6141176,75.784602 L 0.10352941,75.440562 V 60.584831 45.7291 l 9.08470589,0.06743 c 4.9965887,0.03709 12.9864707,0.09757 17.7552937,0.134414 l 8.670589,0.06698 v 17.170448 c 0,9.443747 -0.03494,17.166031 -0.07765,17.16063 -0.04271,-0.0054 -6.902824,-0.952692 -15.244706,-2.105092 z"
     style="fill:#ffffff;stroke-width:0.103529" />
  <path
     id="path54"
     d="M 0.17246652,38.810742 C 0.13474212,36.967187 0.10379852,30.300064 0.10370302,23.994913 L 0.1035294,12.531004 0.33647058,12.477804 C 0.6389245,12.408726 26.103995,8.9444791 32.663529,8.0800568 33.973176,7.9074701 35.172824,7.7437831 35.329412,7.7163079 l 0.284706,-0.049955 V 24.73401 41.801666 l -3.96,0.06298 c -2.178,0.03464 -8.968236,0.08709 -15.089412,0.116554 -6.121177,0.02947 -12.2981153,0.08235 -13.7265307,0.11752 l -2.59711891,0.06394 z"
     style="fill:#ffffff;stroke-width:0.103529" />
  <path
     id="path56"
     d="m 40.065882,24.396066 c 0,-9.602777 0.01834,-17.4595954 0.04075,-17.4595954 0.02241,0 10.575375,-1.5374118 23.451032,-3.4164706 12.875658,-1.8790588 23.479441,-3.41647059 23.563961,-3.41647059 0.135366,0 0.153673,2.46673779 0.153673,20.70588259 v 20.705882 l -3.597647,0.0019 c -1.978706,0.0011 -8.303059,0.0451 -14.054118,0.09788 -5.751058,0.05278 -14.754235,0.128502 -20.007058,0.168271 l -9.550589,0.0723 z"
     style="fill:#ffffff;stroke-width:0.103529" />
  <path
     id="path58"
     d="M 63.384871,84.175703 C 50.615256,82.367993 40.149508,80.870001 40.127655,80.846832 40.105801,80.823662 40.053595,73.036118 40.011641,63.541176 L 39.935362,46.277647 H 63.605328 87.275294 V 66.88 87.482353 l -0.33647,-0.0099 c -0.185059,-0.0055 -10.784338,-1.488991 -23.553953,-3.296701 z"
     style="fill:#ffffff;stroke-width:0.103529" />
</svg>
